<svg xmlns="http://www.w3.org/2000/svg" width="40.22ex" height="14.717ex" version="1.1"><svg xmlns:xlink="http://www.w3.org/1999/xlink" width="40.22ex" height="14.717ex" viewBox="0 -3419.6 17317 6336.7" role="img" focusable="false" style="vertical-align: -6.775ex; max-width: 100%;"><defs><path stroke-width="0" id="E3-MJMAINB-44" d="M39 624V686H270H310H408Q500 686 545 680T638 649Q768 584 805 438Q817 388 817 338Q817 171 702 75Q628 17 515 2Q504 1 270 0H39V62H147V624H39ZM655 337Q655 370 655 390T650 442T639 494T616 540T580 580T526 607T451 623Q443 624 368 624H298V62H377H387H407Q445 62 472 65T540 83T606 129Q629 156 640 195T653 262T655 337Z"></path><path stroke-width="0" id="E3-MJMAIN-3D" d="M56 347Q56 360 70 367H707Q722 359 722 347Q722 336 708 328L390 327H72Q56 332 56 347ZM56 153Q56 168 72 173H708Q722 163 722 153Q722 140 707 133H70Q56 140 56 153Z"></path><path stroke-width="0" id="E3-MJMAIN-5B" d="M118 -250V750H255V710H158V-210H255V-250H118Z"></path><path stroke-width="0" id="E3-MJMATHI-77" d="M580 385Q580 406 599 424T641 443Q659 443 674 425T690 368Q690 339 671 253Q656 197 644 161T609 80T554 12T482 -11Q438 -11 404 5T355 48Q354 47 352 44Q311 -11 252 -11Q226 -11 202 -5T155 14T118 53T104 116Q104 170 138 262T173 379Q173 380 173 381Q173 390 173 393T169 400T158 404H154Q131 404 112 385T82 344T65 302T57 280Q55 278 41 278H27Q21 284 21 287Q21 293 29 315T52 366T96 418T161 441Q204 441 227 416T250 358Q250 340 217 250T184 111Q184 65 205 46T258 26Q301 26 334 87L339 96V119Q339 122 339 128T340 136T341 143T342 152T345 165T348 182T354 206T362 238T373 281Q402 395 406 404Q419 431 449 431Q468 431 475 421T483 402Q483 389 454 274T422 142Q420 131 420 107V100Q420 85 423 71T442 42T487 26Q558 26 600 148Q609 171 620 213T632 273Q632 306 619 325T593 357T580 385Z"></path><path stroke-width="0" id="E3-MJMAIN-31" d="M213 578L200 573Q186 568 160 563T102 556H83V602H102Q149 604 189 617T245 641T273 663Q275 666 285 666Q294 666 302 660V361L303 61Q310 54 315 52T339 48T401 46H427V0H416Q395 3 257 3Q121 3 100 0H88V46H114Q136 46 152 46T177 47T193 50T201 52T207 57T213 61V578Z"></path><path stroke-width="0" id="E3-MJMAIN-2C" d="M78 35T78 60T94 103T137 121Q165 121 187 96T210 8Q210 -27 201 -60T180 -117T154 -158T130 -185T117 -194Q113 -194 104 -185T95 -172Q95 -168 106 -156T131 -126T157 -76T173 -3V9L172 8Q170 7 167 6T161 3T152 1T140 0Q113 0 96 17Z"></path><path stroke-width="0" id="E3-MJMAIN-32" d="M109 429Q82 429 66 447T50 491Q50 562 103 614T235 666Q326 666 387 610T449 465Q449 422 429 383T381 315T301 241Q265 210 201 149L142 93L218 92Q375 92 385 97Q392 99 409 186V189H449V186Q448 183 436 95T421 3V0H50V19V31Q50 38 56 46T86 81Q115 113 136 137Q145 147 170 174T204 211T233 244T261 278T284 308T305 340T320 369T333 401T340 431T343 464Q343 527 309 573T212 619Q179 619 154 602T119 569T109 550Q109 549 114 549Q132 549 151 535T170 489Q170 464 154 447T109 429Z"></path><path stroke-width="0" id="E3-MJMAIN-33" d="M127 463Q100 463 85 480T69 524Q69 579 117 622T233 665Q268 665 277 664Q351 652 390 611T430 522Q430 470 396 421T302 350L299 348Q299 347 308 345T337 336T375 315Q457 262 457 175Q457 96 395 37T238 -22Q158 -22 100 21T42 130Q42 158 60 175T105 193Q133 193 151 175T169 130Q169 119 166 110T159 94T148 82T136 74T126 70T118 67L114 66Q165 21 238 21Q293 21 321 74Q338 107 338 175V195Q338 290 274 322Q259 328 213 329L171 330L168 332Q166 335 166 348Q166 366 174 366Q202 366 232 371Q266 376 294 413T322 525V533Q322 590 287 612Q265 626 240 626Q208 626 181 615T143 592T132 580H135Q138 579 143 578T153 573T165 566T175 555T183 540T186 520Q186 498 172 481T127 463Z"></path><path stroke-width="0" id="E3-MJMAIN-22EF" d="M78 250Q78 274 95 292T138 310Q162 310 180 294T199 251Q199 226 182 208T139 190T96 207T78 250ZM525 250Q525 274 542 292T585 310Q609 310 627 294T646 251Q646 226 629 208T586 190T543 207T525 250ZM972 250Q972 274 989 292T1032 310Q1056 310 1074 294T1093 251Q1093 226 1076 208T1033 190T990 207T972 250Z"></path><path stroke-width="0" id="E3-MJMATHI-56" d="M52 648Q52 670 65 683H76Q118 680 181 680Q299 680 320 683H330Q336 677 336 674T334 656Q329 641 325 637H304Q282 635 274 635Q245 630 242 620Q242 618 271 369T301 118L374 235Q447 352 520 471T595 594Q599 601 599 609Q599 633 555 637Q537 637 537 648Q537 649 539 661Q542 675 545 679T558 683Q560 683 570 683T604 682T668 681Q737 681 755 683H762Q769 676 769 672Q769 655 760 640Q757 637 743 637Q730 636 719 635T698 630T682 623T670 615T660 608T652 599T645 592L452 282Q272 -9 266 -16Q263 -18 259 -21L241 -22H234Q216 -22 216 -15Q213 -9 177 305Q139 623 138 626Q133 637 76 637H59Q52 642 52 648Z"></path><path stroke-width="0" id="E3-MJMAIN-22EE" d="M78 30Q78 54 95 72T138 90Q162 90 180 74T199 31Q199 6 182 -12T139 -30T96 -13T78 30ZM78 440Q78 464 95 482T138 500Q162 500 180 484T199 441Q199 416 182 398T139 380T96 397T78 440ZM78 840Q78 864 95 882T138 900Q162 900 180 884T199 841Q199 816 182 798T139 780T96 797T78 840Z"></path><path stroke-width="0" id="E3-MJMAIN-22F1" d="M133 760Q133 784 150 802T193 820Q217 820 235 804T254 761Q254 736 237 718T194 700T151 717T133 760ZM580 460Q580 484 597 502T640 520Q664 520 682 504T701 461Q701 436 684 418T641 400T598 417T580 460ZM1027 160Q1027 184 1044 202T1087 220Q1111 220 1129 204T1148 161Q1148 136 1131 118T1088 100T1045 117T1027 160Z"></path><path stroke-width="0" id="E3-MJMATHI-4E" d="M234 637Q231 637 226 637Q201 637 196 638T191 649Q191 676 202 682Q204 683 299 683Q376 683 387 683T401 677Q612 181 616 168L670 381Q723 592 723 606Q723 633 659 637Q635 637 635 648Q635 650 637 660Q641 676 643 679T653 683Q656 683 684 682T767 680Q817 680 843 681T873 682Q888 682 888 672Q888 650 880 642Q878 637 858 637Q787 633 769 597L620 7Q618 0 599 0Q585 0 582 2Q579 5 453 305L326 604L261 344Q196 88 196 79Q201 46 268 46H278Q284 41 284 38T282 19Q278 6 272 0H259Q228 2 151 2Q123 2 100 2T63 2T46 1Q31 1 31 10Q31 14 34 26T39 40Q41 46 62 46Q130 49 150 85Q154 91 221 362L289 634Q287 635 234 637Z"></path><path stroke-width="0" id="E3-MJMAIN-5D" d="M22 710V750H159V-250H22V-210H119V710H22Z"></path><path stroke-width="0" id="E3-MJSZ4-23A1" d="M319 -645V1154H666V1070H403V-645H319Z"></path><path stroke-width="0" id="E3-MJSZ4-23A3" d="M319 -644V1155H403V-560H666V-644H319Z"></path><path stroke-width="0" id="E3-MJSZ4-23A2" d="M319 0V602H403V0H319Z"></path><path stroke-width="0" id="E3-MJSZ4-23A4" d="M0 1070V1154H347V-645H263V1070H0Z"></path><path stroke-width="0" id="E3-MJSZ4-23A6" d="M263 -560V1155H347V-644H0V-560H263Z"></path><path stroke-width="0" id="E3-MJSZ4-23A5" d="M263 0V602H347V0H263Z"></path></defs><g stroke="currentColor" fill="currentColor" stroke-width="0" transform="matrix(1 0 0 -1 0 0)"><use xlink:href="#E3-MJMAINB-44" x="0" y="0"></use><use xlink:href="#E3-MJMAIN-3D" x="1159" y="0"></use><g transform="translate(2215,0)"><g transform="translate(0,3341)"><use xlink:href="#E3-MJSZ4-23A1" x="0" y="-1154"></use><g transform="translate(0,-4434.657466994131) scale(1,4.461225028229453)"><use xlink:href="#E3-MJSZ4-23A2"></use></g><use xlink:href="#E3-MJSZ4-23A3" x="0" y="-5540"></use></g><g transform="translate(834,0)"><g transform="translate(-15,0)"><g transform="translate(137,2541)"><use xlink:href="#E3-MJMATHI-77" x="0" y="0"></use><g transform="translate(716,-150)"><use transform="scale(0.707)" xlink:href="#E3-MJMAIN-31" x="0" y="0"></use><use transform="scale(0.707)" xlink:href="#E3-MJMAIN-2C" x="500" y="0"></use><use transform="scale(0.707)" xlink:href="#E3-MJMAIN-31" x="778" y="0"></use></g></g><g transform="translate(137,1053)"><use xlink:href="#E3-MJMATHI-77" x="0" y="0"></use><g transform="translate(716,-150)"><use transform="scale(0.707)" xlink:href="#E3-MJMAIN-32" x="0" y="0"></use><use transform="scale(0.707)" xlink:href="#E3-MJMAIN-2C" x="500" y="0"></use><use transform="scale(0.707)" xlink:href="#E3-MJMAIN-31" x="778" y="0"></use></g></g><use xlink:href="#E3-MJMAIN-22EE" x="858" y="-1154"></use><g transform="translate(0,-2554)"><use xlink:href="#E3-MJMATHI-77" x="0" y="0"></use><g transform="translate(716,-150)"><use transform="scale(0.707)" xlink:href="#E3-MJMATHI-4E" x="0" y="0"></use><use transform="scale(0.707)" xlink:href="#E3-MJMAIN-2C" x="888" y="0"></use><use transform="scale(0.707)" xlink:href="#E3-MJMAIN-31" x="1166" y="0"></use></g></g></g><g transform="translate(2979,0)"><g transform="translate(137,2541)"><use xlink:href="#E3-MJMATHI-77" x="0" y="0"></use><g transform="translate(716,-150)"><use transform="scale(0.707)" xlink:href="#E3-MJMAIN-31" x="0" y="0"></use><use transform="scale(0.707)" xlink:href="#E3-MJMAIN-2C" x="500" y="0"></use><use transform="scale(0.707)" xlink:href="#E3-MJMAIN-32" x="778" y="0"></use></g></g><g transform="translate(137,1053)"><use xlink:href="#E3-MJMATHI-77" x="0" y="0"></use><g transform="translate(716,-150)"><use transform="scale(0.707)" xlink:href="#E3-MJMAIN-32" x="0" y="0"></use><use transform="scale(0.707)" xlink:href="#E3-MJMAIN-2C" x="500" y="0"></use><use transform="scale(0.707)" xlink:href="#E3-MJMAIN-32" x="778" y="0"></use></g></g><use xlink:href="#E3-MJMAIN-22EE" x="858" y="-1154"></use><g transform="translate(0,-2554)"><use xlink:href="#E3-MJMATHI-77" x="0" y="0"></use><g transform="translate(716,-150)"><use transform="scale(0.707)" xlink:href="#E3-MJMATHI-4E" x="0" y="0"></use><use transform="scale(0.707)" xlink:href="#E3-MJMAIN-2C" x="888" y="0"></use><use transform="scale(0.707)" xlink:href="#E3-MJMAIN-32" x="1166" y="0"></use></g></g></g><g transform="translate(5973,0)"><g transform="translate(137,2541)"><use xlink:href="#E3-MJMATHI-77" x="0" y="0"></use><g transform="translate(716,-150)"><use transform="scale(0.707)" xlink:href="#E3-MJMAIN-31" x="0" y="0"></use><use transform="scale(0.707)" xlink:href="#E3-MJMAIN-2C" x="500" y="0"></use><use transform="scale(0.707)" xlink:href="#E3-MJMAIN-33" x="778" y="0"></use></g></g><g transform="translate(137,1053)"><use xlink:href="#E3-MJMATHI-77" x="0" y="0"></use><g transform="translate(716,-150)"><use transform="scale(0.707)" xlink:href="#E3-MJMAIN-32" x="0" y="0"></use><use transform="scale(0.707)" xlink:href="#E3-MJMAIN-2C" x="500" y="0"></use><use transform="scale(0.707)" xlink:href="#E3-MJMAIN-33" x="778" y="0"></use></g></g><use xlink:href="#E3-MJMAIN-22EE" x="858" y="-1154"></use><g transform="translate(0,-2554)"><use xlink:href="#E3-MJMATHI-77" x="0" y="0"></use><g transform="translate(716,-150)"><use transform="scale(0.707)" xlink:href="#E3-MJMATHI-4E" x="0" y="0"></use><use transform="scale(0.707)" xlink:href="#E3-MJMAIN-2C" x="888" y="0"></use><use transform="scale(0.707)" xlink:href="#E3-MJMAIN-33" x="1166" y="0"></use></g></g></g><g transform="translate(8967,0)"><use xlink:href="#E3-MJMAIN-22EF" x="55" y="2541"></use><use xlink:href="#E3-MJMAIN-22EF" x="55" y="1053"></use><use xlink:href="#E3-MJMAIN-22F1" x="0" y="-1154"></use><use xlink:href="#E3-MJMAIN-22EF" x="55" y="-2554"></use></g><g transform="translate(11249,0)"><g transform="translate(137,2541)"><use xlink:href="#E3-MJMATHI-77" x="0" y="0"></use><g transform="translate(716,-150)"><use transform="scale(0.707)" xlink:href="#E3-MJMAIN-31" x="0" y="0"></use><use transform="scale(0.707)" xlink:href="#E3-MJMAIN-2C" x="500" y="0"></use><use transform="scale(0.707)" xlink:href="#E3-MJMATHI-56" x="778" y="0"></use></g></g><g transform="translate(137,1053)"><use xlink:href="#E3-MJMATHI-77" x="0" y="0"></use><g transform="translate(716,-150)"><use transform="scale(0.707)" xlink:href="#E3-MJMAIN-32" x="0" y="0"></use><use transform="scale(0.707)" xlink:href="#E3-MJMAIN-2C" x="500" y="0"></use><use transform="scale(0.707)" xlink:href="#E3-MJMATHI-56" x="778" y="0"></use></g></g><use xlink:href="#E3-MJMAIN-22EE" x="953" y="-1154"></use><g transform="translate(0,-2554)"><use xlink:href="#E3-MJMATHI-77" x="0" y="0"></use><g transform="translate(716,-150)"><use transform="scale(0.707)" xlink:href="#E3-MJMATHI-4E" x="0" y="0"></use><use transform="scale(0.707)" xlink:href="#E3-MJMAIN-2C" x="888" y="0"></use><use transform="scale(0.707)" xlink:href="#E3-MJMATHI-56" x="1166" y="0"></use></g></g></g></g><g transform="translate(14434,3341)"><use xlink:href="#E3-MJSZ4-23A4" x="0" y="-1154"></use><g transform="translate(0,-4434.657466994131) scale(1,4.461225028229453)"><use xlink:href="#E3-MJSZ4-23A5"></use></g><use xlink:href="#E3-MJSZ4-23A6" x="0" y="-5540"></use></g></g></g></svg></svg>